<svg id="Layer_1" data-name="Layer 1" xmlns="http://www.w3.org/2000/svg" xmlns:xlink="http://www.w3.org/1999/xlink" viewBox="0 0 100 100"><defs><style>.cls-1{fill:none;}.cls-2{clip-path:url(#clip-path);}.cls-3{fill:#fff;}</style><clipPath id="clip-path"><rect class="cls-1" x="22.69" width="54.61" height="100"/></clipPath></defs><g id="Group_86" data-name="Group 86"><g id="Group_80" data-name="Group 80"><g id="Group_79" data-name="Group 79"><g class="cls-2"><g id="Group_78" data-name="Group 78"><path id="Path_23" data-name="Path 23" class="cls-3" d="M74.72-.11l-13,0c-14.57,0-24,9.66-24,24.61V35.83h-13a2,2,0,0,0-2,2V54.31a2,2,0,0,0,2,2h13V97.83a2,2,0,0,0,2,2h17a2.05,2.05,0,0,0,2-2V56.35H74.1a2,2,0,0,0,2-2h0V37.87a2,2,0,0,0-.6-1.44,2,2,0,0,0-1.44-.6H58.87V26.21c0-4.62,1.1-7,7.12-7h8.74a2,2,0,0,0,2-2V1.94a2,2,0,0,0-2-2Z"/></g></g></g></g></g></svg>