<svg id="Layer_1" data-name="Layer 1" xmlns="http://www.w3.org/2000/svg" viewBox="0 0 100 100"><defs><style>.cls-1{fill:#fff;}</style></defs><g id="Group_527" data-name="Group 527"><path id="Path_196" data-name="Path 196" class="cls-1" d="M99,29.87v39.5c0,.44-.11.87-.16,1.31-.27,2.15-.38,4.33-.82,6.46A25.17,25.17,0,0,1,81.72,96.68a37.75,37.75,0,0,1-13.44,2.18c-10.38.1-20.77.2-31.15.15a65,65,0,0,1-15.24-1.27A25.11,25.11,0,0,1,4.16,83.55,34.92,34.92,0,0,1,1.22,68.74c-.1-10.6-.23-21.22-.14-31.82A97.64,97.64,0,0,1,2,23.58,24.88,24.88,0,0,1,12,6.79,29.79,29.79,0,0,1,28.26,1.33C30.6,1.16,33,1.06,35.31,1H64.64l6.87.38a32.88,32.88,0,0,1,11.6,2.58C92.13,8,96.88,15.2,98.36,24.79,98.62,26.46,98.75,28.17,99,29.87ZM50.05,90.4v-.15c2.58,0,5.17.08,7.76,0C63.39,90,69,90.11,74.53,89.4A16,16,0,0,0,89,76.58a43.59,43.59,0,0,0,1-9.39q.27-13.61.17-27.2a130.54,130.54,0,0,0-.75-14.25A16.27,16.27,0,0,0,75.77,10.92,57.09,57.09,0,0,0,65.5,10Q51.8,9.81,38.11,10a99.06,99.06,0,0,0-13,.83A16.1,16.1,0,0,0,11,24.12a54.58,54.58,0,0,0-.95,9.79q-.25,11.88-.14,23.77c.06,5.47.2,11,.73,16.44a16.28,16.28,0,0,0,8.24,13.1,21.23,21.23,0,0,0,10,2.64C35.94,90.11,43,90.22,50.05,90.4Z"/><path id="Path_197" data-name="Path 197" class="cls-1" d="M24.84,50A25.21,25.21,0,1,1,50.09,75.23h0A25.25,25.25,0,0,1,24.84,50Zm8.89-.09A16.28,16.28,0,0,0,49.88,66.34H50A16.28,16.28,0,0,0,66.39,50.23v-.08A16.3,16.3,0,0,0,50.27,33.67h-.15A16.28,16.28,0,0,0,33.73,49.86v.07Z"/><path id="Path_198" data-name="Path 198" class="cls-1" d="M82.13,23.76a5.85,5.85,0,0,1-5.78,5.92h0a5.88,5.88,0,0,1-6-5.79v-.05a5.88,5.88,0,0,1,11.75-.21Z"/></g></svg>