<svg id="Layer_1" data-name="Layer 1" xmlns="http://www.w3.org/2000/svg" viewBox="0 0 100 100"><defs><style>.cls-1{fill:#fff;}</style></defs><g id="Group_83" data-name="Group 83"><path id="Path_30" data-name="Path 30" class="cls-1" d="M100,19a42.52,42.52,0,0,1-11.81,3.23,20.36,20.36,0,0,0,9-11.33,41,41,0,0,1-13,5,20.5,20.5,0,0,0-35.47,14,21.59,21.59,0,0,0,.48,4.67A58,58,0,0,1,7,13.12,20.5,20.5,0,0,0,13.26,40.5,20.19,20.19,0,0,1,4,38v.22A20.6,20.6,0,0,0,20.42,58.35a20.69,20.69,0,0,1-5.37.67,17.91,17.91,0,0,1-3.87-.33A20.71,20.71,0,0,0,30.34,73,41.23,41.23,0,0,1,4.92,81.71,38.44,38.44,0,0,1,0,81.43a57.68,57.68,0,0,0,31.45,9.2c37.73,0,58.35-31.25,58.35-58.34,0-.9,0-1.78-.07-2.65A40.92,40.92,0,0,0,100,19Z"/></g></svg>