<svg width="18" height="18" viewBox="0 0 18 18" fill="none" xmlns="http://www.w3.org/2000/svg">
<path fill-rule="evenodd" clip-rule="evenodd" d="M13 0C15.669 0 18.226 2.258 17.475 5.206C16.7176 8.16317 15.1791 10.8624 13.0206 13.021C10.8622 15.1796 8.16311 16.7183 5.206 17.476C2.258 18.225 0 15.668 0 13V12C0 10.873 0.901 10.055 1.9 9.956C2.719 9.87518 3.52292 9.68169 4.289 9.381C4.47002 9.3099 4.66783 9.29314 4.85823 9.33274C5.04863 9.37235 5.22335 9.46662 5.361 9.604L6.364 10.606C8.14193 9.60998 9.60998 8.14193 10.606 6.364L9.604 5.36C9.46662 5.22235 9.37235 5.04763 9.33274 4.85723C9.29314 4.66683 9.3099 4.46902 9.381 4.288C9.68178 3.5216 9.87527 2.71734 9.956 1.898C10.055 0.902 10.873 0 12 0H13Z" fill="black"/>
</svg>
